<svg width="118" height="24" viewBox="0 0 118 24" fill="none" xmlns="http://www.w3.org/2000/svg">
<line x1="5.04321" y1="11.8315" x2="108.595" y2="11.8316" stroke="#CCCCCC" stroke-dasharray="3 3"/>
<g clip-path="url(#clip0_5_1274)">
<path d="M57.6235 21.75H56.258C56.1208 21.75 55.9858 21.7185 55.8654 21.6585C55.7449 21.5984 55.6429 21.5118 55.5685 21.4064C55.4942 21.301 55.4499 21.1803 55.4398 21.0552C55.4297 20.9302 55.4541 20.8048 55.5107 20.6906L58.8171 14.0227L53.8523 13.9219L52.0417 15.9267C51.6965 16.3233 51.421 16.5 50.7183 16.5H49.7991C49.6536 16.5043 49.5091 16.4764 49.3778 16.4188C49.2465 16.3612 49.1324 16.2755 49.0451 16.1691C48.923 16.0186 48.803 15.7636 48.9199 15.3998L49.9366 12.0717C49.9443 12.0469 49.9535 12.022 49.9638 11.9977C49.9643 11.9953 49.9643 11.9929 49.9638 11.9906C49.9532 11.9663 49.9441 11.9414 49.9366 11.9161L48.9189 8.56687C48.8086 8.21016 48.9292 7.96078 49.0502 7.81406C49.1315 7.71549 49.237 7.63573 49.3581 7.58118C49.4793 7.52664 49.6128 7.49883 49.7478 7.5H50.7183C51.243 7.5 51.7524 7.71516 52.0519 8.0625L53.8252 10.0336L58.8171 9.96609L55.5117 3.30984C55.455 3.19568 55.4306 3.07036 55.4406 2.94533C55.4506 2.8203 55.4947 2.69956 55.5689 2.59414C55.6432 2.48872 55.7451 2.40198 55.8655 2.34186C55.9859 2.28175 56.1208 2.25016 56.258 2.25H57.6383C57.8309 2.25354 58.0201 2.29667 58.1919 2.3762C58.3638 2.45572 58.5138 2.5696 58.6309 2.70937L65.0451 9.83438L68.0084 9.76312C68.2253 9.75234 68.8265 9.74859 68.9655 9.74859C71.8 9.75 73.4927 10.5909 73.4927 12C73.4927 12.4434 73.2988 13.2656 72.0016 13.7888C71.2358 14.0981 70.214 14.2547 68.9645 14.2547C68.827 14.2547 68.2274 14.2509 68.0073 14.2402L65.0446 14.168L58.6144 21.293C58.4973 21.4321 58.3474 21.5454 58.1759 21.6246C58.0043 21.7037 57.8155 21.7465 57.6235 21.75V21.75Z" fill="#1262AE"/>
</g>
<circle cx="5.302" cy="12.3315" r="4" fill="white" stroke="#1262AE" stroke-width="2"/>
<circle cx="112.653" cy="11.9146" r="4" fill="white" stroke="#1262AE" stroke-width="2"/>
<defs>
<clipPath id="clip0_5_1274">
<rect width="26.2624" height="24" fill="white" transform="translate(48.051)"/>
</clipPath>
</defs>
</svg>
