<svg width="32" height="32" viewBox="0 0 32 32" fill="none" xmlns="http://www.w3.org/2000/svg">
<path d="M21.7605 1.0427C21.1016 0.390368 20.2082 0.0239258 19.2767 0.0239258C18.3452 0.0239258 17.4518 0.390368 16.7929 1.0427L1.3654 16.3277C1.03912 16.651 0.780294 17.0347 0.603711 17.457C0.427129 17.8794 0.336243 18.332 0.336243 18.7891C0.336243 19.2462 0.427129 19.6989 0.603711 20.1212C0.780294 20.5435 1.03912 20.9273 1.3654 21.2505L3.19565 23.0621C3.99208 23.8527 5.11178 23.7119 5.78798 23.3128C6.16098 23.0933 6.59713 23.0033 7.02756 23.0568C7.45799 23.1102 7.85818 23.3042 8.16492 23.6081C8.47167 23.912 8.66749 24.3085 8.72149 24.7349C8.77548 25.1613 8.68455 25.5934 8.46307 25.9629C8.06173 26.6328 7.91806 27.742 8.71606 28.531L10.5479 30.3442C10.8741 30.6674 11.2615 30.9238 11.6878 31.0988C12.1141 31.2737 12.571 31.3637 13.0324 31.3637C13.4939 31.3637 13.9508 31.2737 14.3771 31.0988C14.8034 30.9238 15.1907 30.6674 15.517 30.3442L30.943 15.0622C31.2692 14.739 31.5281 14.3553 31.7046 13.9329C31.8812 13.5106 31.9721 13.058 31.9721 12.6009C31.9721 12.1437 31.8812 11.6911 31.7046 11.2688C31.5281 10.8464 31.2692 10.4627 30.943 10.1395L29.1143 8.3263C28.3178 7.53729 27.1966 7.67653 26.5204 8.07567C26.1474 8.29509 25.7112 8.38516 25.2808 8.33167C24.8504 8.27819 24.4502 8.08418 24.1434 7.7803C23.8367 7.47642 23.6409 7.07997 23.5869 6.65356C23.5329 6.22715 23.6238 5.79507 23.8453 5.42555C24.2482 4.75566 24.3903 3.64642 23.5923 2.85741L21.762 1.0427H21.7605Z" fill="white"/>
</svg>
