<svg width="17" height="18" viewBox="0 0 17 18" fill="none" xmlns="http://www.w3.org/2000/svg">
<path d="M16.1364 6.43973L11.1374 5.65551L8.90264 0.765268C8.8416 0.631376 8.74119 0.522988 8.61714 0.457105C8.30606 0.291334 7.92802 0.429476 7.77248 0.765268L5.53776 5.65551L0.538692 6.43973C0.400868 6.46098 0.274857 6.53111 0.17838 6.63738C0.0617453 6.76678 -0.00252593 6.94087 -0.000310794 7.12139C0.00190434 7.30191 0.0704246 7.4741 0.190194 7.60012L3.80709 11.4065L2.95258 16.7813C2.93254 16.9063 2.94536 17.0349 2.98958 17.1525C3.0338 17.27 3.10765 17.3719 3.20277 17.4464C3.29788 17.521 3.41044 17.5653 3.5277 17.5743C3.64495 17.5834 3.7622 17.5567 3.86616 17.4975L8.33756 14.9599L12.809 17.4975C12.931 17.5676 13.0728 17.591 13.2087 17.5655C13.5512 17.5017 13.7816 17.1511 13.7225 16.7813L12.868 11.4065L16.4849 7.60012C16.5834 7.49599 16.6483 7.35997 16.668 7.2112C16.7212 6.83928 16.481 6.49499 16.1364 6.43973V6.43973Z" fill="#FDBF00"/>
</svg>
