<svg width="17" height="18" viewBox="0 0 17 18" fill="none" xmlns="http://www.w3.org/2000/svg">
<path d="M16.1059 6.43973L11.1165 5.65551L8.88603 0.765268C8.82512 0.631376 8.72489 0.522988 8.60109 0.457105C8.2906 0.291334 7.91329 0.429476 7.75805 0.765268L5.52762 5.65551L0.538145 6.43973C0.400586 6.46098 0.274817 6.53111 0.178526 6.63738C0.0621144 6.76678 -0.0020335 6.94087 0.000177381 7.12139C0.00238826 7.30191 0.070777 7.4741 0.190316 7.60012L3.80027 11.4065L2.9474 16.7813C2.9274 16.9063 2.94019 17.0349 2.98433 17.1525C3.02846 17.27 3.10218 17.3719 3.19711 17.4464C3.29204 17.521 3.40439 17.5653 3.52141 17.5743C3.63844 17.5834 3.75547 17.5567 3.85922 17.4975L8.32204 14.9599L12.7849 17.4975C12.9067 17.5676 13.0482 17.591 13.1838 17.5655C13.5257 17.5017 13.7556 17.1511 13.6967 16.7813L12.8438 11.4065L16.4538 7.60012C16.552 7.49599 16.6169 7.35997 16.6365 7.2112C16.6896 6.83928 16.4498 6.49499 16.1059 6.43973V6.43973Z" fill="#FDBF00"/>
</svg>
