<svg width="25" height="26" viewBox="0 0 25 26" fill="none" xmlns="http://www.w3.org/2000/svg">
<path d="M12.5 23.1904C9.76739 23.1904 7.14667 22.1048 5.2144 20.1726C3.28213 18.2403 2.19659 15.6196 2.19659 12.8869C2.19659 10.1543 3.28213 7.53357 5.2144 5.6013C7.14667 3.66903 9.76739 2.58349 12.5 2.58349C15.2327 2.58349 17.8534 3.66903 19.7857 5.6013C21.7179 7.53357 22.8035 10.1543 22.8035 12.8869C22.8035 15.6196 21.7179 18.2403 19.7857 20.1726C17.8534 22.1048 15.2327 23.1904 12.5 23.1904ZM12.5 24.6623C15.623 24.6623 18.6182 23.4217 20.8265 21.2134C23.0348 19.0051 24.2754 16.0099 24.2754 12.8869C24.2754 9.76391 23.0348 6.7688 20.8265 4.56049C18.6182 2.35219 15.623 1.11157 12.5 1.11157C9.37701 1.11157 6.3819 2.35219 4.17359 4.56049C1.96529 6.7688 0.72467 9.76391 0.72467 12.8869C0.72467 16.0099 1.96529 19.0051 4.17359 21.2134C6.3819 23.4217 9.37701 24.6623 12.5 24.6623V24.6623Z" fill="#1262AF"/>
<path d="M9.87143 7.88679C10.0103 7.81529 10.1662 7.78348 10.3219 7.79486C10.4777 7.80624 10.6273 7.86038 10.7543 7.95131L16.6967 12.1959C16.8067 12.2744 16.8964 12.3781 16.9583 12.4983C17.0202 12.6184 17.0525 12.7517 17.0525 12.8869C17.0525 13.0221 17.0202 13.1553 16.9583 13.2755C16.8964 13.3957 16.8067 13.4994 16.6967 13.5779L10.7543 17.8224C10.6274 17.9133 10.4778 17.9674 10.3221 17.9788C10.1664 17.9901 10.0106 17.9584 9.87183 17.887C9.73302 17.8155 9.6166 17.7072 9.53535 17.5739C9.45411 17.4406 9.41119 17.2875 9.41132 17.1314V8.64232C9.41115 8.48626 9.45401 8.33317 9.53518 8.19989C9.61635 8.0666 9.7327 7.95826 9.87143 7.88679V7.88679Z" fill="#1262AF"/>
</svg>
