<svg width="25" height="26" viewBox="0 0 25 26" fill="none" xmlns="http://www.w3.org/2000/svg">
<path d="M12.5 23.1904C9.76733 23.1904 7.14661 22.1048 5.21434 20.1726C3.28207 18.2403 2.19653 15.6196 2.19653 12.8869C2.19653 10.1543 3.28207 7.53357 5.21434 5.6013C7.14661 3.66903 9.76733 2.58349 12.5 2.58349C15.2326 2.58349 17.8533 3.66903 19.7856 5.6013C21.7179 7.53357 22.8034 10.1543 22.8034 12.8869C22.8034 15.6196 21.7179 18.2403 19.7856 20.1726C17.8533 22.1048 15.2326 23.1904 12.5 23.1904ZM12.5 24.6623C15.623 24.6623 18.6181 23.4217 20.8264 21.2134C23.0347 19.0051 24.2753 16.0099 24.2753 12.8869C24.2753 9.76391 23.0347 6.7688 20.8264 4.56049C18.6181 2.35219 15.623 1.11157 12.5 1.11157C9.37695 1.11157 6.38184 2.35219 4.17353 4.56049C1.96522 6.7688 0.724609 9.76391 0.724609 12.8869C0.724609 16.0099 1.96522 19.0051 4.17353 21.2134C6.38184 23.4217 9.37695 24.6623 12.5 24.6623V24.6623Z" fill="#1262AF"/>
<path d="M9.87136 7.88679C10.0102 7.81529 10.1661 7.78348 10.3219 7.79486C10.4776 7.80624 10.6272 7.86038 10.7542 7.95131L16.6966 12.1959C16.8066 12.2744 16.8963 12.3781 16.9582 12.4983C17.0201 12.6184 17.0524 12.7517 17.0524 12.8869C17.0524 13.0221 17.0201 13.1553 16.9582 13.2755C16.8963 13.3957 16.8066 13.4994 16.6966 13.5779L10.7542 17.8224C10.6273 17.9133 10.4778 17.9674 10.3221 17.9788C10.1664 17.9901 10.0106 17.9584 9.87177 17.887C9.73296 17.8155 9.61654 17.7072 9.53529 17.5739C9.45405 17.4406 9.41113 17.2875 9.41126 17.1314V8.64232C9.41109 8.48626 9.45395 8.33317 9.53512 8.19989C9.61629 8.0666 9.73263 7.95826 9.87136 7.88679V7.88679Z" fill="#1262AF"/>
</svg>
